<svg width="15.501953" height="13.564941" viewBox="0 0 15.502 13.5649" fill="none" xmlns="http://www.w3.org/2000/svg" xmlns:xlink="http://www.w3.org/1999/xlink">
	<desc>
			Created with Pixso.
	</desc>
	<defs/>
	<path id="Vector" d="M15.5 6.78C15.5 7.03 15.39 7.28 15.21 7.46C15.03 7.64 14.79 7.75 14.53 7.75L3.3 7.75L7.46 11.9C7.55 11.99 7.63 12.1 7.67 12.22C7.72 12.34 7.75 12.46 7.75 12.59C7.75 12.72 7.72 12.84 7.67 12.96C7.63 13.08 7.55 13.19 7.46 13.28C7.37 13.37 7.27 13.44 7.15 13.49C7.03 13.53 6.91 13.56 6.78 13.56C6.65 13.56 6.52 13.53 6.41 13.49C6.29 13.44 6.18 13.37 6.09 13.28L0.28 7.46C0.19 7.37 0.12 7.27 0.07 7.15C0.02 7.03 0 6.9 0 6.78C0 6.65 0.02 6.52 0.07 6.41C0.12 6.29 0.19 6.18 0.28 6.09L6.09 0.28C6.27 0.1 6.52 0 6.78 0C7.04 0 7.28 0.1 7.46 0.28C7.65 0.46 7.75 0.71 7.75 0.96C7.75 1.22 7.65 1.47 7.46 1.65L3.3 5.81L14.53 5.81C14.79 5.81 15.03 5.91 15.21 6.09C15.39 6.27 15.5 6.52 15.5 6.78Z" fill="#FFFFFF" fill-opacity="1.000000" fill-rule="evenodd"/>
</svg>
