<svg width="153.000000" height="46.000000" viewBox="0 0 153 46" fill="none" xmlns="http://www.w3.org/2000/svg" xmlns:xlink="http://www.w3.org/1999/xlink">
	<desc>
			Created with Pixso.
	</desc>
	<defs/>
	<path id="Vector" d="M0 14.81L2.21 3.56L25.49 3.56L23.42 14.81L17.81 14.81L13.98 34.32C13.93 34.51 13.91 34.71 13.91 34.93C13.91 35.42 14.01 36.34 14.73 36.34C15.83 36.34 16.9 35.6 17.81 35.16L15.27 45.22C13.4 45.64 11.52 46 9.57 46C4.88 46 0.34 44.69 0.34 39.85C0.34 39.75 0.34 39.64 0.37 39.54L5.24 14.81L0 14.81L0 14.81Z" fill="#FFFFFF" fill-opacity="1.000000" fill-rule="evenodd"/>
	<path id="Vector" d="M52.68 24.12L33.8 35.2C34.98 36.26 36.25 37.19 38.01 37.19C42.79 37.19 46.35 33.16 49.3 30.3L47.06 41.7C42.89 44.37 37.65 45.86 32.52 45.86C24.3 45.86 18.68 39.78 18.68 32.7C18.68 23.04 29.39 13.15 40.29 13.15C43.88 13.15 47.29 14.71 49.58 17.14C51.55 19.24 52.51 21.44 52.68 24.12ZM49.38 45.22L55.61 13.53L68.15 13.53C68.1 14.12 68.05 14.71 68.05 15.28C68.05 15.82 68.2 16.34 68.36 16.85C70.4 14.82 73.25 13.14 76.38 13.14C80.89 13.14 84.95 16.07 84.95 20.25C84.95 20.76 84.9 21.28 84.81 21.78L80.18 45.22L67.35 45.22L71.25 25.46C71.28 25.27 71.3 25.09 71.3 24.9C71.3 23.76 70.23 22.92 68.97 22.92C67.6 22.92 66.69 23.92 66.46 25.06L62.32 45.22L49.38 45.22ZM81.68 45.22L87.92 13.53L100.48 13.53L100.48 14.27C100.48 15.32 100.69 16.19 101.35 17.07C102.08 16.23 102.9 15.44 103.94 14.88C106.2 13.7 109.07 13.14 111.67 13.14C112.72 13.14 113.62 13.4 114.57 13.8C115.36 15.84 116.64 17.41 118.23 19.01L113.07 45.22L100.03 45.22L103.89 25.69C103.94 25.43 103.95 25.17 103.95 24.9C103.95 23.77 103.29 22.76 101.89 22.76C100.44 22.76 99.51 23.92 99.28 25.09L95.3 45.22L81.68 45.22L81.68 45.22ZM114.62 45.22L119.61 19.9C121.84 21.59 123.85 22.39 126.8 22.39C128.52 22.39 130.18 22.04 131.83 21.65L127.2 45.22L114.62 45.22Z" fill="#FFFFFF" fill-opacity="1.000000" fill-rule="evenodd"/>
	<path id="Vector" d="M120.54 19C121.8 18.68 123.06 18.37 124.39 18.37C126.74 18.37 128.87 19.46 130.88 20.43C129.6 20.79 128.28 21.18 126.93 21.18C124.52 21.18 122.46 20.25 120.54 19ZM117.29 15.94C116.21 14.27 115.21 12.54 115.21 10.56C115.21 7.67 116.93 5.44 119.03 3.4C122.79 5.92 126.43 7.42 131.21 7.42C133.44 7.42 135.59 6.87 137.7 6.27C138.47 7.64 139.23 9.07 139.23 10.63C139.23 13.58 137.54 16 135.36 18.1C132.13 16.17 128.69 14.52 124.69 14.52C122.13 14.52 119.69 15.22 117.29 15.94ZM122.92 1.05C124.43 0.49 125.93 0 127.57 0C130.47 0 132.83 0.77 134.98 2.52C133.67 3.1 132.34 3.6 130.85 3.6C127.88 3.6 125.26 2.64 122.92 1.05ZM128.82 44.04L130.96 33.22C131.82 34.04 134.03 36.39 135.52 36.39C136.65 36.39 136.85 34.76 136.85 34.04C136.85 32.94 136.57 31.93 135.82 31.02C134.16 29.04 132.03 27.28 132.03 24.62C132.03 23.54 132.29 22.47 132.57 21.43C136.36 19.94 138.44 17.52 139.6 14.03L153 14.03L151.11 23.63C150.19 22.76 149.11 21.75 147.68 21.75C146.42 21.75 145.49 23 145.49 24.02C145.49 25.61 146.37 27.38 147.52 28.57L149.6 30.71C150.6 31.74 151.08 33.1 151.08 34.45C151.08 36.99 149.45 39.41 147.6 41.23C144.45 44.31 141.27 45.29 136.59 45.29C133.9 45.29 131.38 44.76 128.82 44.04Z" fill="#FFFFFF" fill-opacity="1.000000" fill-rule="evenodd"/>
	<path id="Vector" d="M30.98 30.09C34.27 29.24 39.29 25.17 40.01 22.16C39.45 22.04 38.88 21.92 38.3 21.92C34.98 21.92 30.76 25.37 30.76 28.39C30.76 28.96 30.86 29.54 30.98 30.09Z" fill="#FFFFFF" fill-opacity="1.000000" fill-rule="evenodd"/>
</svg>
