<svg width="28.797363" height="19.207703" viewBox="0 0 28.7974 19.2077" fill="none" xmlns="http://www.w3.org/2000/svg" xmlns:xlink="http://www.w3.org/1999/xlink">
	<desc>
			Created with Pixso.
	</desc>
	<defs/>
	<path id="Vector" d="M28.19 3.01C28.03 2.43 27.71 1.9 27.27 1.49C26.82 1.06 26.27 0.75 25.67 0.59C23.41 0 14.39 0 14.39 0C10.62 -0.04 6.86 0.15 3.12 0.56C2.52 0.73 1.97 1.05 1.51 1.48C1.07 1.9 0.75 2.43 0.58 3.01C0.18 5.18 -0.02 7.39 0 9.6C-0.02 11.81 0.18 14.01 0.58 16.19C0.75 16.76 1.07 17.29 1.51 17.71C1.96 18.14 2.51 18.44 3.12 18.6C5.4 19.2 14.39 19.2 14.39 19.2C18.15 19.24 21.92 19.05 25.67 18.63C26.27 18.48 26.82 18.17 27.27 17.74C27.71 17.32 28.03 16.79 28.19 16.22C28.6 14.05 28.8 11.84 28.79 9.63C28.82 7.41 28.62 5.19 28.19 3.01L28.19 3.01ZM11.52 13.71L11.52 5.49L19.03 9.6L11.52 13.71Z" fill="#FFFFFF" fill-opacity="1.000000" fill-rule="nonzero"/>
</svg>
