<svg width="36.000000" height="36.000000" viewBox="0 0 36 36" fill="none" xmlns="http://www.w3.org/2000/svg" xmlns:xlink="http://www.w3.org/1999/xlink">
	<desc>
			Created with Pixso.
	</desc>
	<defs>
		<clipPath id="clip332_41">
			<rect rx="0.000000" width="35.000000" height="35.000000" transform="translate(0.500000 0.500000)" fill="white" fill-opacity="0"/>
		</clipPath>
	</defs>
	<rect rx="0.000000" width="35.000000" height="35.000000" transform="translate(0.500000 0.500000)" fill="#FFFFFF" fill-opacity="0"/>
	<g clip-path="url(#clip332_41)">
		<path d="M29.96 12.03C30.16 12.56 29.53 13.81 28.08 15.78C27.87 16.05 27.61 16.41 27.29 16.85C26.62 17.69 26.24 18.24 26.15 18.51C26.01 18.86 26.07 19.21 26.33 19.53C26.47 19.71 26.81 20.07 27.33 20.61L27.38 20.61L27.38 20.65C28.57 21.75 29.37 22.69 29.78 23.46L29.87 23.64L29.96 23.98L29.96 24.4L29.65 24.74L28.91 24.89L25.72 24.98C25.51 25.01 25.27 24.98 24.99 24.89C24.72 24.81 24.51 24.72 24.36 24.63L24.1 24.45C23.84 24.27 23.54 24 23.22 23.64C22.9 23.29 22.62 22.96 22.37 22.66C22.12 22.36 21.87 22.12 21.61 21.92C21.34 21.73 21.11 21.66 20.91 21.72C20.88 21.72 20.84 21.74 20.8 21.77C20.75 21.8 20.68 21.86 20.58 21.97C20.48 22.07 20.39 22.2 20.32 22.35C20.24 22.5 20.18 22.71 20.12 23C20.06 23.28 20.03 23.61 20.03 24C20.03 24.12 20.02 24.23 19.99 24.34C19.96 24.44 19.93 24.52 19.9 24.58L19.86 24.63C19.68 24.81 19.45 24.89 19.16 24.89L17.76 24.89C17.15 24.95 16.53 24.89 15.9 24.72C15.27 24.54 14.73 24.31 14.26 24.02C13.79 23.74 13.37 23.46 12.99 23.17C12.61 22.89 12.32 22.65 12.12 22.44L11.81 22.12C11.72 22.06 11.61 21.95 11.46 21.77C11.32 21.59 11.02 21.2 10.56 20.61C10.11 20.01 9.67 19.37 9.23 18.68C8.79 18 8.28 17.1 7.7 15.98C7.12 14.86 6.58 13.71 6.08 12.52C6.02 12.37 6 12.25 6 12.16C6 12.07 6.01 12 6.04 11.94L6.08 11.89C6.2 11.71 6.43 11.63 6.78 11.63L10.24 11.63C10.32 11.63 10.41 11.65 10.5 11.69L10.72 11.8L10.76 11.85C10.91 11.94 11.01 12.07 11.07 12.25C11.24 12.67 11.44 13.11 11.66 13.57C11.88 14.03 12.04 14.38 12.16 14.62L12.34 14.98C12.6 15.48 12.84 15.92 13.06 16.29C13.28 16.67 13.47 16.96 13.65 17.17C13.82 17.37 14 17.54 14.17 17.66C14.35 17.78 14.49 17.84 14.61 17.84C14.73 17.84 14.84 17.82 14.96 17.79L15 17.72L15.16 17.43L15.33 16.85L15.44 15.83L15.44 14.22C15.41 13.89 15.37 13.58 15.31 13.3C15.25 13.02 15.19 12.82 15.13 12.7L15.09 12.56C14.89 12.27 14.52 12.07 14 11.98C13.91 11.98 13.94 11.88 14.08 11.67C14.23 11.52 14.39 11.4 14.57 11.31C15 11.07 15.99 10.97 17.54 11C18.21 11 18.78 11.06 19.24 11.18C19.39 11.21 19.52 11.26 19.64 11.34C19.75 11.41 19.84 11.51 19.9 11.65C19.96 11.78 20 11.92 20.03 12.05C20.06 12.18 20.08 12.38 20.08 12.63L20.08 13.32C20.05 13.56 20.03 13.86 20.03 14.22L20.03 15.29C20.03 15.38 20.02 15.56 20.01 15.83C20 16.09 19.99 16.3 19.99 16.45C19.99 16.6 20 16.77 20.03 16.96C20.06 17.16 20.11 17.32 20.18 17.46C20.26 17.59 20.35 17.69 20.47 17.75C20.53 17.78 20.59 17.8 20.67 17.81C20.74 17.83 20.85 17.78 20.99 17.68C21.14 17.57 21.3 17.43 21.47 17.23C21.65 17.04 21.87 16.75 22.13 16.36C22.39 15.97 22.67 15.53 22.96 15.02C23.46 14.13 23.91 13.16 24.32 12.12C24.35 12.06 24.38 11.99 24.43 11.92C24.47 11.84 24.52 11.79 24.58 11.76L24.62 11.76L24.67 11.71L24.84 11.67L25.1 11.67L28.69 11.63C29.01 11.6 29.28 11.61 29.5 11.67C29.72 11.73 29.84 11.8 29.87 11.89L29.96 12.03Z" fill="#FFFFFF" fill-opacity="1.000000" fill-rule="nonzero"/>
	</g>
</svg>
