<svg width="31.360352" height="45.696045" viewBox="0 0 31.3604 45.696" fill="none" xmlns="http://www.w3.org/2000/svg" xmlns:xlink="http://www.w3.org/1999/xlink">
	<desc>
			Created with Pixso.
	</desc>
	<defs/>
	<path id="3" d="M21.12 18.17C24.14 19.07 26.6 20.65 28.48 22.91C30.4 25.13 31.36 27.81 31.36 30.97C31.36 35.58 29.8 39.18 26.68 41.79C23.61 44.39 19.83 45.69 15.36 45.69C11.86 45.69 8.72 44.9 5.95 43.32C3.22 41.7 1.23 39.33 0 36.22L7.55 31.87C8.66 35.32 11.26 37.05 15.36 37.05C17.62 37.05 19.37 36.52 20.6 35.45C21.88 34.34 22.52 32.85 22.52 30.97C22.52 29.14 21.88 27.66 20.6 26.56C19.37 25.45 17.62 24.89 15.36 24.89L13.44 24.89L10.04 19.77L18.87 8.25L1.34 8.25L1.34 0L29.5 0L29.5 7.29L21.12 18.17Z" fill="#8D86C9" fill-opacity="1.000000" fill-rule="nonzero"/>
</svg>
