<svg width="30.000000" height="18.000000" viewBox="0 0 30 18" fill="none" xmlns="http://www.w3.org/2000/svg" xmlns:xlink="http://www.w3.org/1999/xlink">
	<desc>
			Created with Pixso.
	</desc>
	<defs/>
	<path id="Vector" d="M29.95 1.32C30.2 2.01 29.42 3.62 27.6 6.15C27.34 6.49 27.01 6.95 26.61 7.53C25.78 8.6 25.3 9.31 25.19 9.65C25.01 10.11 25.08 10.55 25.41 10.97C25.59 11.2 26.01 11.66 26.67 12.35L26.72 12.35L26.72 12.41C28.22 13.83 29.22 15.03 29.73 16.03L29.84 16.26L29.95 16.69L29.95 17.23L29.57 17.66L28.64 17.87L24.65 17.98C24.39 18.02 24.09 17.98 23.74 17.87C23.4 17.75 23.13 17.64 22.95 17.52L22.62 17.29C22.3 17.06 21.93 16.72 21.53 16.26C21.13 15.8 20.77 15.38 20.46 14.99C20.16 14.61 19.84 14.29 19.51 14.05C19.18 13.8 18.89 13.71 18.63 13.79C18.6 13.79 18.55 13.81 18.5 13.84C18.44 13.88 18.35 13.97 18.22 14.1C18.1 14.24 17.99 14.4 17.9 14.59C17.8 14.78 17.72 15.06 17.65 15.42C17.58 15.79 17.54 16.22 17.54 16.72C17.54 16.87 17.52 17.01 17.49 17.15C17.45 17.28 17.41 17.39 17.38 17.46L17.32 17.52C17.1 17.75 16.81 17.87 16.45 17.87L14.7 17.87C13.93 17.94 13.16 17.87 12.38 17.64C11.59 17.41 10.91 17.11 10.33 16.75C9.74 16.38 9.21 16.02 8.74 15.65C8.27 15.29 7.9 14.97 7.65 14.71L7.26 14.3C7.16 14.23 7.01 14.07 6.83 13.84C6.65 13.62 6.27 13.12 5.71 12.35C5.14 11.59 4.59 10.76 4.04 9.88C3.49 9 2.86 7.84 2.13 6.41C1.4 4.97 0.72 3.49 0.1 1.95C0.03 1.76 0 1.61 0 1.5C0 1.38 0.01 1.28 0.05 1.21L0.1 1.15C0.25 0.92 0.54 0.81 0.98 0.81L5.3 0.81C5.41 0.81 5.52 0.83 5.62 0.89L5.9 1.04L5.95 1.09C6.14 1.21 6.26 1.38 6.34 1.61C6.55 2.15 6.8 2.71 7.07 3.3C7.35 3.9 7.56 4.35 7.7 4.65L7.92 5.11C8.25 5.76 8.55 6.33 8.82 6.81C9.1 7.29 9.34 7.66 9.56 7.93C9.78 8.2 10 8.41 10.22 8.56C10.43 8.71 10.62 8.79 10.76 8.79C10.91 8.79 11.05 8.77 11.2 8.73L11.25 8.65L11.45 8.27L11.66 7.53L11.8 6.2L11.8 4.14C11.77 3.72 11.71 3.32 11.64 2.96C11.56 2.6 11.49 2.34 11.42 2.18L11.36 2.01C11.11 1.63 10.65 1.38 10 1.27C9.89 1.27 9.92 1.13 10.11 0.86C10.29 0.67 10.49 0.52 10.71 0.4C11.25 0.1 12.49 -0.04 14.42 0C15.26 0 15.97 0.08 16.56 0.23C16.74 0.27 16.9 0.34 17.05 0.43C17.19 0.53 17.3 0.66 17.38 0.83C17.45 1.01 17.5 1.18 17.54 1.35C17.58 1.52 17.6 1.77 17.6 2.1L17.6 2.99C17.56 3.29 17.54 3.68 17.54 4.14L17.54 5.52C17.54 5.63 17.53 5.86 17.51 6.2C17.5 6.55 17.49 6.82 17.49 7.01C17.49 7.2 17.5 7.42 17.54 7.67C17.58 7.92 17.64 8.13 17.73 8.3C17.82 8.47 17.94 8.6 18.09 8.68C18.16 8.71 18.24 8.74 18.33 8.76C18.42 8.78 18.56 8.72 18.74 8.59C18.93 8.45 19.13 8.26 19.34 8.01C19.56 7.77 19.84 7.39 20.16 6.89C20.49 6.4 20.84 5.82 21.2 5.17C21.82 4.02 22.39 2.78 22.9 1.44C22.93 1.36 22.98 1.27 23.03 1.18C23.09 1.08 23.15 1.02 23.23 0.98L23.28 0.98L23.33 0.92L23.55 0.86L23.88 0.86L28.36 0.81C28.76 0.77 29.1 0.79 29.37 0.86C29.65 0.94 29.8 1.04 29.84 1.15L29.95 1.32Z" fill="#8D86C9" fill-opacity="1.000000" fill-rule="nonzero"/>
</svg>
