<svg width="20.000000" height="20.000000" viewBox="0 0 20 20" fill="none" xmlns="http://www.w3.org/2000/svg" xmlns:xlink="http://www.w3.org/1999/xlink">
	<desc>
			Created with Pixso.
	</desc>
	<defs/>
	<path id="Vector" d="M16.25 20L2.5 20C1.83 20 1.2 19.73 0.73 19.26C0.26 18.79 0 18.16 0 17.5L0 3.75C0 3.08 0.26 2.45 0.73 1.98C1.2 1.51 1.83 1.25 2.5 1.25L7.5 1.25L7.5 3.75L2.5 3.75L2.5 17.5L16.25 17.5L16.25 12.5L18.75 12.5L18.75 17.5C18.75 18.16 18.48 18.79 18.01 19.26C17.54 19.73 16.91 20 16.25 20ZM9.62 12.13L7.86 10.36L15.72 2.5L11.25 2.5L11.25 0L20 0L20 8.75L17.5 8.75L17.5 4.26L9.62 12.13Z" fill="#FFFFFF" fill-opacity="1.000000" fill-rule="nonzero"/>
</svg>
