<svg width="29.997070" height="20.007812" viewBox="0 0 29.9971 20.0078" fill="none" xmlns="http://www.w3.org/2000/svg" xmlns:xlink="http://www.w3.org/1999/xlink">
	<desc>
			Created with Pixso.
	</desc>
	<defs/>
	<path id="Vector" d="M29.36 3.13C29.19 2.53 28.86 1.98 28.41 1.55C27.94 1.1 27.36 0.78 26.73 0.62C24.39 0 14.98 0 14.98 0C11.06 -0.04 7.15 0.15 3.25 0.59C2.62 0.76 2.05 1.09 1.58 1.54C1.12 1.98 0.78 2.53 0.61 3.13C0.19 5.4 -0.02 7.7 0 10C-0.02 12.3 0.18 14.6 0.61 16.86C0.78 17.46 1.11 18.01 1.57 18.45C2.04 18.89 2.62 19.21 3.25 19.38C5.63 20 14.98 20 14.98 20C18.91 20.04 22.83 19.85 26.73 19.41C27.36 19.25 27.94 18.93 28.41 18.48C28.87 18.04 29.2 17.49 29.36 16.89C29.79 14.63 30 12.33 29.99 10.03C30.02 7.71 29.81 5.4 29.36 3.13L29.36 3.13ZM12 14.28L12 5.72L19.82 10L12 14.28Z" fill="#8D86C9" fill-opacity="1.000000" fill-rule="nonzero"/>
</svg>
